<svg width="22" height="22" viewBox="0 0 18 18" fill="none" xmlns="http://www.w3.org/2000/svg">
<path d="M13.1666 4.00002H17.3333V5.66669H15.6666V16.5C15.6666 16.721 15.5788 16.933 15.4225 17.0893C15.2663 17.2456 15.0543 17.3334 14.8333 17.3334H3.16663C2.94561 17.3334 2.73365 17.2456 2.57737 17.0893C2.42109 16.933 2.33329 16.721 2.33329 16.5V5.66669H0.666626V4.00002H4.83329V1.50002C4.83329 1.27901 4.92109 1.06704 5.07737 0.910765C5.23365 0.754484 5.44561 0.666687 5.66663 0.666687H12.3333C12.5543 0.666687 12.7663 0.754484 12.9225 0.910765C13.0788 1.06704 13.1666 1.27901 13.1666 1.50002V4.00002ZM14 5.66669H3.99996V15.6667H14V5.66669ZM6.49996 8.16669H8.16663V13.1667H6.49996V8.16669ZM9.83329 8.16669H11.5V13.1667H9.83329V8.16669ZM6.49996 2.33335V4.00002H11.5V2.33335H6.49996Z" fill="white"/>
</svg>
